<svg width="84" height="79" viewBox="0 0 84 79" fill="none" xmlns="http://www.w3.org/2000/svg">
<path d="M11.4375 29.0312L8.07497 21.5828L0.5625 18.25L8.07497 14.7937L11.4375 7.375L14.8641 14.7937L22.3125 18.25L14.8641 21.5828L11.4375 29.0312ZM66.9375 14.2188L64.7402 9.29106L59.9062 7.1875L64.7402 4.96094L66.9375 0.0625L69.0703 4.96094L74.0625 7.1875L69.0703 9.29106L66.9375 14.2188ZM76.3125 32.7812L74.1797 27.8536L69.1875 25.75L74.1797 23.5234L76.3125 18.625L78.5098 23.5234L83.3438 25.75L78.5098 27.8536L76.3125 32.7812ZM42.0276 49.0938C38.6342 49.0938 35.8125 47.8789 33.5625 45.4492C31.3125 43.0195 30.1875 40.1094 30.1875 36.7188V13.6562C30.1875 10.4323 31.3281 7.67319 33.6094 5.37887C35.8906 3.08462 38.6875 1.9375 42 1.9375C45.3125 1.9375 48.125 3.08462 50.4375 5.37887C52.75 7.67319 53.9062 10.4323 53.9062 13.6562V36.7188C53.9062 40.1094 52.7748 43.0195 50.5119 45.4492C48.2491 47.8789 45.4209 49.0938 42.0276 49.0938ZM38.3438 78.4375V65.3125C30.9062 64.5625 24.75 61.4841 19.875 56.0772C15 50.6704 12.5625 44.2176 12.5625 36.7188H20.0625C20.0625 42.7188 22.2115 47.8125 26.5094 52C30.8073 56.1875 35.9892 58.2812 42.055 58.2812C48.1208 58.2812 53.2844 56.183 57.5456 51.9866C61.8069 47.7902 63.9375 42.7009 63.9375 36.7188H71.4375C71.4375 44.2181 69 50.671 64.125 56.0776C59.25 61.4842 53.125 64.5593 45.75 65.3029V78.4375H38.3438ZM42.0098 40.5625C42.9783 40.5625 43.7656 40.1856 44.3719 39.4317C44.9781 38.6777 45.2812 37.7734 45.2812 36.7188V13.6686C45.2812 12.8104 44.9469 12.0625 44.2781 11.425C43.6094 10.7875 42.85 10.4688 42 10.4688C41.15 10.4688 40.3906 10.7875 39.7219 11.425C39.0531 12.0625 38.7188 12.8104 38.7188 13.6686V36.7188C38.7188 37.7734 39.0252 38.6777 39.638 39.4317C40.2508 40.1856 41.0415 40.5625 42.0098 40.5625Z" fill="#007300"/>
</svg>
